<svg width="126" height="126" viewBox="0 0 126 126" fill="none" xmlns="http://www.w3.org/2000/svg">
<g filter="url(#filter0_d)">
<rect x="8" y="6" width="100" height="100" fill="#C4C4C4"/>
</g>
<path d="M59.0938 10.8125C34.6379 10.8125 14.8125 30.6113 14.8125 55.0139C14.8125 74.5466 27.5061 91.1255 45.0962 96.98C47.3049 97.3792 48.875 95.1172 48.875 93.4141C48.875 92.3762 48.9016 91.1255 48.875 87.4531C36.554 90.1143 32.6953 81.4922 32.6953 81.4922C30.6729 76.3828 28.2246 74.9192 28.2246 74.9192C24.2063 72.1782 28.5173 72.2581 28.5173 72.2581C32.9614 72.5508 35.25 76.3828 35.25 76.3828C38.6562 82.3438 46.3469 81.7583 48.875 80.6406C48.875 77.9263 49.1677 75.957 49.9128 74.7063C35.9951 72.2581 28.4109 64.2214 28.4375 53.0979C28.4641 46.5249 30.7261 41.4155 34.3984 37.6367C32.8018 35.6143 31.7107 28.6953 34.9839 24.4375C43.2068 24.4375 48.1033 30.3718 48.1033 30.3718C48.1033 30.3718 51.9619 28.6953 59.0671 28.6953C66.199 28.6953 70.031 30.292 70.031 30.292C70.031 30.292 74.9541 24.4375 83.177 24.4375C86.4502 28.6953 85.3591 35.6143 84.0818 37.5037C87.5945 41.2026 89.75 46.312 89.75 53.0979C89.75 64.2214 82.1924 72.2581 68.3013 74.6797C69.1794 76.0103 69.3125 77.873 69.3125 80.6406C69.3125 86.5483 69.3125 91.9504 69.3125 93.4141C69.3125 95.1172 70.856 97.4058 73.1179 96.98C90.708 91.0989 103.375 74.5466 103.375 55.0139C103.375 30.6113 83.5496 10.8125 59.0938 10.8125Z" fill="#333333"/>
<defs>
<filter id="filter0_d" x="0" y="0" width="126" height="126" filterUnits="userSpaceOnUse" color-interpolation-filters="sRGB">
<feFlood flood-opacity="0" result="BackgroundImageFix"/>
<feColorMatrix in="SourceAlpha" type="matrix" values="0 0 0 0 0 0 0 0 0 0 0 0 0 0 0 0 0 0 127 0" result="hardAlpha"/>
<feMorphology radius="6" operator="dilate" in="SourceAlpha" result="effect1_dropShadow"/>
<feOffset dx="5" dy="7"/>
<feGaussianBlur stdDeviation="3.5"/>
<feComposite in2="hardAlpha" operator="out"/>
<feColorMatrix type="matrix" values="0 0 0 0 0 0 0 0 0 0 0 0 0 0 0 0 0 0 0.25 0"/>
<feBlend mode="normal" in2="BackgroundImageFix" result="effect1_dropShadow"/>
<feBlend mode="normal" in="SourceGraphic" in2="effect1_dropShadow" result="shape"/>
</filter>
</defs>
</svg>
