<svg width="100" height="100" viewBox="0 0 100 100" fill="none" xmlns="http://www.w3.org/2000/svg">
<path d="M50 10C27.9102 10 10 27.9102 10 50C10 57.5041 12.1077 64.5003 15.7031 70.5013L10.3581 90L30.2734 84.7721C36.0978 88.0835 42.8215 90 50 90C72.0898 90 90 72.0898 90 50C90 27.9102 72.0898 10 50 10ZM36.3086 31.3411C36.9588 31.3411 37.6261 31.3371 38.2031 31.3672C38.9168 31.3835 39.6932 31.4364 40.4362 33.0794C41.3192 35.0326 43.243 39.9333 43.4896 40.4297C43.7362 40.9261 43.9111 41.5112 43.5677 42.1615C43.2414 42.828 43.0713 43.2316 42.5911 43.8216C42.0947 44.3953 41.5503 45.1074 41.1003 45.5404C40.6038 46.0368 40.0903 46.5812 40.6641 47.5716C41.2378 48.562 43.2284 51.8075 46.1719 54.4271C49.9552 57.8068 53.147 58.846 54.1406 59.3424C55.1343 59.8389 55.7088 59.7616 56.2826 59.0951C56.8726 58.4448 58.7606 56.215 59.4271 55.2214C60.0773 54.2277 60.7406 54.4002 61.6406 54.7266C62.5537 55.0529 67.4243 57.4528 68.418 57.9492C69.4116 58.4456 70.0627 58.6914 70.3125 59.0951C70.5688 59.5117 70.5697 61.495 69.7461 63.8086C68.9225 66.119 64.8796 68.352 63.0664 68.5091C61.2362 68.6792 59.5288 69.3319 51.1719 66.0417C41.0921 62.0719 34.7347 51.7472 34.2383 51.0807C33.7419 50.4305 30.2018 45.7129 30.2018 40.8464C30.2018 35.9627 32.762 33.5718 33.6589 32.5781C34.5719 31.5845 35.6421 31.3411 36.3086 31.3411Z" fill="#333333"/>
</svg>
