<svg width="97" height="97" viewBox="0 0 97 97" fill="none" xmlns="http://www.w3.org/2000/svg">
<path d="M32.327 9.7C19.8499 9.7 9.69995 19.8586 9.69995 32.3396V64.673C9.69995 77.15 19.8586 87.3 32.3396 87.3H64.6729C77.15 87.3 87.3 77.1414 87.3 64.6603V32.327C87.3 19.8499 77.1413 9.7 64.6603 9.7H32.327ZM71.1333 22.6333C72.9181 22.6333 74.3666 24.0819 74.3666 25.8667C74.3666 27.6515 72.9181 29.1 71.1333 29.1C69.3485 29.1 67.9 27.6515 67.9 25.8667C67.9 24.0819 69.3485 22.6333 71.1333 22.6333ZM48.5 29.1C59.1993 29.1 67.9 37.8006 67.9 48.5C67.9 59.1994 59.1993 67.9 48.5 67.9C37.8006 67.9 29.1 59.1994 29.1 48.5C29.1 37.8006 37.8006 29.1 48.5 29.1ZM48.5 35.5667C41.3568 35.5667 35.5666 41.3568 35.5666 48.5C35.5666 55.6432 41.3568 61.4333 48.5 61.4333C55.6431 61.4333 61.4333 55.6432 61.4333 48.5C61.4333 41.3568 55.6431 35.5667 48.5 35.5667Z" fill="#333333"/>
</svg>
