<svg width="109" height="109" viewBox="0 0 109 109" fill="none" xmlns="http://www.w3.org/2000/svg">
<path d="M51.0938 6.8125C26.6379 6.8125 6.8125 26.6113 6.8125 51.0139C6.8125 70.5466 19.5061 87.1255 37.0962 92.98C39.3049 93.3792 40.875 91.1172 40.875 89.4141C40.875 88.3762 40.9016 87.1255 40.875 83.4531C28.554 86.1143 24.6953 77.4922 24.6953 77.4922C22.6729 72.3828 20.2246 70.9192 20.2246 70.9192C16.2063 68.1782 20.5173 68.2581 20.5173 68.2581C24.9614 68.5508 27.25 72.3828 27.25 72.3828C30.6562 78.3438 38.3469 77.7583 40.875 76.6406C40.875 73.9263 41.1677 71.957 41.9128 70.7063C27.9951 68.2581 20.4109 60.2214 20.4375 49.0979C20.4641 42.5249 22.7261 37.4155 26.3984 33.6367C24.8018 31.6143 23.7107 24.6953 26.9839 20.4375C35.2068 20.4375 40.1033 26.3718 40.1033 26.3718C40.1033 26.3718 43.9619 24.6953 51.0671 24.6953C58.199 24.6953 62.031 26.292 62.031 26.292C62.031 26.292 66.9541 20.4375 75.177 20.4375C78.4502 24.6953 77.3591 31.6143 76.0818 33.5037C79.5945 37.2026 81.75 42.312 81.75 49.0979C81.75 60.2214 74.1924 68.2581 60.3013 70.6797C61.1794 72.0103 61.3125 73.873 61.3125 76.6406C61.3125 82.5483 61.3125 87.9504 61.3125 89.4141C61.3125 91.1172 62.856 93.4058 65.1179 92.98C82.708 87.0989 95.375 70.5466 95.375 51.0139C95.375 26.6113 75.5496 6.8125 51.0938 6.8125Z" fill="#333333"/>
</svg>
