<svg width="126" height="126" viewBox="0 0 126 126" fill="none" xmlns="http://www.w3.org/2000/svg">
<g filter="url(#filter0_d)">
<rect x="8" y="6" width="100" height="100" fill="#C4C4C4"/>
</g>
<path d="M40.327 15.7C27.8499 15.7 17.7 25.8586 17.7 38.3396V70.673C17.7 83.15 27.8586 93.3 40.3396 93.3H72.6729C85.15 93.3 95.3 83.1414 95.3 70.6603V38.327C95.3 25.8499 85.1413 15.7 72.6603 15.7H40.327ZM79.1333 28.6333C80.9181 28.6333 82.3666 30.0819 82.3666 31.8667C82.3666 33.6515 80.9181 35.1 79.1333 35.1C77.3485 35.1 75.9 33.6515 75.9 31.8667C75.9 30.0819 77.3485 28.6333 79.1333 28.6333ZM56.5 35.1C67.1993 35.1 75.9 43.8006 75.9 54.5C75.9 65.1994 67.1993 73.9 56.5 73.9C45.8006 73.9 37.1 65.1994 37.1 54.5C37.1 43.8006 45.8006 35.1 56.5 35.1ZM56.5 41.5667C49.3568 41.5667 43.5666 47.3568 43.5666 54.5C43.5666 61.6432 49.3568 67.4333 56.5 67.4333C63.6431 67.4333 69.4333 61.6432 69.4333 54.5C69.4333 47.3568 63.6431 41.5667 56.5 41.5667Z" fill="#333333"/>
<defs>
<filter id="filter0_d" x="0" y="0" width="126" height="126" filterUnits="userSpaceOnUse" color-interpolation-filters="sRGB">
<feFlood flood-opacity="0" result="BackgroundImageFix"/>
<feColorMatrix in="SourceAlpha" type="matrix" values="0 0 0 0 0 0 0 0 0 0 0 0 0 0 0 0 0 0 127 0" result="hardAlpha"/>
<feMorphology radius="6" operator="dilate" in="SourceAlpha" result="effect1_dropShadow"/>
<feOffset dx="5" dy="7"/>
<feGaussianBlur stdDeviation="3.5"/>
<feComposite in2="hardAlpha" operator="out"/>
<feColorMatrix type="matrix" values="0 0 0 0 0 0 0 0 0 0 0 0 0 0 0 0 0 0 0.25 0"/>
<feBlend mode="normal" in2="BackgroundImageFix" result="effect1_dropShadow"/>
<feBlend mode="normal" in="SourceGraphic" in2="effect1_dropShadow" result="shape"/>
</filter>
</defs>
</svg>
